<?xml version="1.0" encoding="UTF-8" standalone="no"?>
<svg
   xmlns:dc="http://purl.org/dc/elements/1.1/"
   xmlns:cc="http://creativecommons.org/ns#"
   xmlns:rdf="http://www.w3.org/1999/02/22-rdf-syntax-ns#"
   xmlns:svg="http://www.w3.org/2000/svg"
   xmlns="http://www.w3.org/2000/svg"
   xmlns:sodipodi="http://sodipodi.sourceforge.net/DTD/sodipodi-0.dtd"
   xmlns:inkscape="http://www.inkscape.org/namespaces/inkscape"
   width="400"
   height="400"
   version="1.1"
   viewBox="0 0 105.83 105.83"
   id="svg164"
   sodipodi:docname="12.svg"
   inkscape:version="1.0.2 (e86c870879, 2021-01-15)">
  <metadata
     id="metadata170">
    <rdf:RDF>
      <cc:Work
         rdf:about="">
        <dc:format>image/svg+xml</dc:format>
        <dc:type
           rdf:resource="http://purl.org/dc/dcmitype/StillImage" />
      </cc:Work>
    </rdf:RDF>
  </metadata>
  <defs
     id="defs168">
    <rect
       x="-23.150817"
       y="42.589946"
       width="82.664301"
       height="12.950207"
       id="rect861" />
  </defs>
  <sodipodi:namedview
     pagecolor="#ffffff"
     bordercolor="#666666"
     borderopacity="1"
     objecttolerance="10"
     gridtolerance="10"
     guidetolerance="10"
     inkscape:pageopacity="0"
     inkscape:pageshadow="2"
     inkscape:window-width="1841"
     inkscape:window-height="1050"
     id="namedview166"
     showgrid="false"
     inkscape:zoom="1.7030777"
     inkscape:cx="194.55516"
     inkscape:cy="206.34591"
     inkscape:window-x="0"
     inkscape:window-y="0"
     inkscape:window-maximized="0"
     inkscape:current-layer="svg164"
     inkscape:document-rotation="0" />
  <path
     d="M -0.21294014,0 H 105.00706 c 0.0738,0 0.13328,0.059443 0.13328,0.13328 v 105.22 c 0,0.0738 -0.0594,0.13328 -0.13328,0.13328 H -0.21294014 c -0.073837,0 -0.13328,-0.0594 -0.13328,-0.13328 v -105.22 c 0,-0.073837 0.059443,-0.13328 0.13328,-0.13328 z"
     fill="#fff"
     id="path2"
     style="fill:#ffffff" />
  <rect
     style="fill:#ffe5bf;fill-opacity:1;stroke:#878787;stroke-width:0.601609;stroke-miterlimit:4;stroke-dasharray:none;stroke-dashoffset:7.35;stroke-opacity:1"
     id="rect860"
     width="51.816277"
     height="13.087873"
     x="45.834808"
     y="38.515049"
     ry="2.2434359"
     rx="3.4009416" />
  <path
     d="m 41.177312,58.424351 h 29.317519 c 0.05507,0 0.09941,0.03693 0.09941,0.08281 v 21.663003 c 0,0.04589 -0.04433,0.08281 -0.09941,0.08281 H 41.177312 c -0.05507,0 -0.09941,-0.03695 -0.09941,-0.08281 V 58.50716 c 0,-0.04588 0.04433,-0.08281 0.09941,-0.08281 z"
     fill="#fbfbfb"
     fill-opacity="0.85421"
     stroke="#000000"
     stroke-dasharray="0, 0.449664"
     stroke-linejoin="bevel"
     stroke-miterlimit="4.1"
     stroke-opacity="0.25297"
     stroke-width="0.0408788"
     id="path128" />
  <g
     id="g2377"
     transform="matrix(0.36411879,0,0,0.36411879,27.599959,26.449287)">
    <g
       transform="matrix(0.10148163,0,0,0.10148163,29.51014,44.110521)"
       id="g16">
      <path
         d="m 65.419,0.36106 c -20.044174,-3.1458e-4 -54.751841,-4.6766884 -66.4326025,9.793286 -8.8270731,10.934863 -1.749085,29.827075 -1.749085,44.974561 2.253e-4,14.355318 -9.3114225,46.747593 -1.3013857,57.401163 11.6263016,15.46331 46.8709082,8.2258 67.7068482,8.22547 7.368503,0 42.708445,1.40493 49.656955,1.98884 0,0 5.12807,-40.604363 5.1285,-68.426935 2.81601,-6.847245 19.11916,1.833488 19.54238,-11.554443 0.70849,-22.41202 1.17171,-29.624049 -3.43066,-35.4559084 C 122.87119,-7.4788836 85.716562,0.36106 65.419,0.36106 Z m -34.705,28.607 18.962,0.06599 17.785,24.847 9.8729,-13.077 -6.6037,-0.78448 v -11.05 h 31.973 v 11.508 l -6.4077,1.1117 -18.177,22.296 19.158,23.343 6.6697,1.0464 v 11.443 h -18.635 l -19.093,-25.566 -10.331,13.862 5.6886,0.71916 v 10.985 h -31.516 v -11.443 l 6.6044,-1.0464 19.093,-23.016 -18.439,-22.623 -6.6044,-1.1117 z"
         fill="#ffb200"
         stroke="#000000"
         stroke-dasharray="0, 6.182"
         stroke-linejoin="bevel"
         stroke-miterlimit="4.1"
         stroke-opacity="0.25297"
         stroke-width="0.562"
         id="path14"
         sodipodi:nodetypes="cscscscsscccccccccccccccccccccccccc" />
    </g>
  </g>
  <path
     style="fill:#ff9955;stroke:none;stroke-width:0.264575px;stroke-linecap:butt;stroke-linejoin:miter;stroke-opacity:1"
     d="M 26.985989,0.037554 29.98011,3.631248 32.840603,0 Z"
     id="path853" />
  <path
     d="m 27.339416,12.497782 h 1.322876 v -2.64575 h 2.64575 v 2.64575 h 1.322875 V 8.529157 L 29.985167,6.544844 27.339416,8.529157 Z M 26.4575,13.379699 v -5.2915 l 3.527667,-2.645751 3.527667,2.645751 v 5.2915 h -3.086709 v -2.64575 h -0.881917 v 2.64575 z m 3.527667,-3.858385 z"
     id="path1097"
     style="stroke-width:0.011024" />
  <g
     aria-label="bitcoincash:p ..."
     transform="matrix(1.0427948,0,0,1.0427948,72.535241,-2.4031942)"
     id="text858"
     style="font-size:4.93873px;line-height:1.25;font-family:'Annie Use Your Telescope';-inkscape-font-specification:'Annie Use Your Telescope';white-space:pre;shape-inside:url(#rect861)">
    <path
       d="m -22.128074,44.219008 q 0,0.158039 -0.0099,0.306201 -0.0099,0.148162 -0.01975,0.232121 h 0.02963 q 0.108652,-0.167917 0.296324,-0.281508 0.187672,-0.118529 0.488934,-0.118529 0.464241,0 0.750687,0.350649 0.291385,0.35065 0.291385,1.032195 0,0.691422 -0.291385,1.042072 -0.291385,0.35065 -0.765503,0.35065 -0.301262,0 -0.483995,-0.108652 -0.177795,-0.108652 -0.286447,-0.251876 h -0.04445 l -0.113591,0.31114 h -0.464241 v -3.753434 h 0.62228 z m 0.607464,0.642035 q -0.335833,0 -0.469179,0.202488 -0.133346,0.202488 -0.138285,0.62228 v 0.05433 q 0,0.429669 0.128407,0.656851 0.133346,0.227182 0.488935,0.227182 0.276569,0 0.42473,-0.227182 0.148162,-0.23212 0.148162,-0.66179 0,-0.439547 -0.1531,-0.656851 -0.148162,-0.217304 -0.42967,-0.217304 z"
       style="font-style:normal;font-variant:normal;font-weight:600;font-stretch:normal;font-size:4.93873px;font-family:'Noto Sans';-inkscape-font-specification:'Noto Sans Semi-Bold'"
       id="path848" />
    <path
       d="m -19.347571,43.374485 q 0.143223,0 0.241997,0.07408 0.103714,0.06914 0.103714,0.251876 0,0.182733 -0.103714,0.256813 -0.09877,0.07408 -0.241997,0.07408 -0.143224,0 -0.246937,-0.07408 -0.09877,-0.07408 -0.09877,-0.256813 0,-0.182733 0.09877,-0.251876 0.103713,-0.07408 0.246937,-0.07408 z m 0.31114,1.032195 v 2.676791 h -0.62228 V 44.40668 Z"
       style="font-style:normal;font-variant:normal;font-weight:600;font-stretch:normal;font-size:4.93873px;font-family:'Noto Sans';-inkscape-font-specification:'Noto Sans Semi-Bold'"
       id="path850" />
    <path
       d="m -17.204169,46.634047 q 0.113591,0 0.222243,-0.01976 0.113591,-0.02469 0.207427,-0.05433 v 0.464241 q -0.09877,0.04445 -0.256814,0.07408 -0.15804,0.03457 -0.330895,0.03457 -0.227182,0 -0.414854,-0.07408 -0.187671,-0.07902 -0.296323,-0.266692 -0.108652,-0.187671 -0.108652,-0.523505 v -1.392722 h -0.360528 v -0.27163 l 0.395099,-0.217304 0.197549,-0.567954 h 0.39016 v 0.587709 h 0.760564 v 0.469179 h -0.760564 v 1.387783 q 0,0.187672 0.09877,0.281508 0.09877,0.0889 0.256814,0.0889 z"
       style="font-style:normal;font-variant:normal;font-weight:600;font-stretch:normal;font-size:4.93873px;font-family:'Noto Sans';-inkscape-font-specification:'Noto Sans Semi-Bold'"
       id="path852" />
    <path
       d="m -15.154605,47.132859 q -0.577831,0 -0.908726,-0.330895 -0.330895,-0.330895 -0.330895,-1.042072 0,-0.493873 0.162978,-0.800074 0.167917,-0.31114 0.459302,-0.454364 0.291385,-0.148161 0.666728,-0.148161 0.251876,0 0.449425,0.04939 0.197549,0.04939 0.335833,0.118529 l -0.182733,0.488935 q -0.1531,-0.05927 -0.306201,-0.09878 -0.1531,-0.04445 -0.296324,-0.04445 -0.651912,0 -0.651912,0.884033 0,0.42967 0.162978,0.646974 0.167917,0.217304 0.479057,0.217304 0.222243,0 0.395098,-0.05433 0.172856,-0.05433 0.330895,-0.148162 v 0.538321 q -0.1531,0.0889 -0.330895,0.133346 -0.172855,0.04445 -0.434608,0.04445 z"
       style="font-style:normal;font-variant:normal;font-weight:600;font-stretch:normal;font-size:4.93873px;font-family:'Noto Sans';-inkscape-font-specification:'Noto Sans Semi-Bold'"
       id="path854" />
    <path
       d="m -11.37154,45.740137 q 0,0.666728 -0.345711,1.032194 -0.345711,0.360528 -0.938359,0.360528 -0.365466,0 -0.651912,-0.162978 -0.286447,-0.162978 -0.449425,-0.474118 -0.162978,-0.31114 -0.162978,-0.755626 0,-0.666729 0.340773,-1.022317 0.345711,-0.360527 0.938358,-0.360527 0.370405,0 0.656851,0.162978 0.286447,0.158039 0.449425,0.469179 0.162978,0.306201 0.162978,0.750687 z m -1.911289,0 q 0,0.424731 0.148162,0.656851 0.153101,0.23212 0.488935,0.23212 0.335833,0 0.483995,-0.23212 0.153101,-0.23212 0.153101,-0.656851 0,-0.424731 -0.153101,-0.651912 -0.148162,-0.227182 -0.488934,-0.227182 -0.330895,0 -0.483996,0.227182 -0.148162,0.227181 -0.148162,0.651912 z"
       style="font-style:normal;font-variant:normal;font-weight:600;font-stretch:normal;font-size:4.93873px;font-family:'Noto Sans';-inkscape-font-specification:'Noto Sans Semi-Bold'"
       id="path856" />
    <path
       d="m -10.418374,43.374485 q 0.143223,0 0.241998,0.07408 0.103713,0.06914 0.103713,0.251876 0,0.182733 -0.103713,0.256813 -0.09877,0.07408 -0.241998,0.07408 -0.143223,0 -0.246936,-0.07408 -0.09877,-0.07408 -0.09877,-0.256813 0,-0.182733 0.09877,-0.251876 0.103713,-0.07408 0.246936,-0.07408 z m 0.31114,1.032195 v 2.676791 h -0.62228 V 44.40668 Z"
       style="font-style:normal;font-variant:normal;font-weight:600;font-stretch:normal;font-size:4.93873px;font-family:'Noto Sans';-inkscape-font-specification:'Noto Sans Semi-Bold'"
       id="path858" />
    <path
       d="m -7.8798723,44.357293 q 0.4494244,0 0.7012996,0.23212 0.256814,0.23212 0.256814,0.750687 v 1.743371 h -0.62228 v -1.619903 q 0,-0.602525 -0.4938729,-0.602525 -0.3753435,0 -0.5136279,0.237059 -0.1382845,0.237059 -0.1382845,0.676606 v 1.308763 H -9.3121039 V 44.40668 h 0.4790568 l 0.088897,0.35065 h 0.034571 q 0.128407,-0.207427 0.3506498,-0.301263 0.2271816,-0.09877 0.4790568,-0.09877 z"
       style="font-style:normal;font-variant:normal;font-weight:600;font-stretch:normal;font-size:4.93873px;font-family:'Noto Sans';-inkscape-font-specification:'Noto Sans Semi-Bold'"
       id="path860" />
    <path
       d="m -5.0598659,47.132859 q -0.5778314,0 -0.9087263,-0.330895 -0.3308949,-0.330895 -0.3308949,-1.042072 0,-0.493873 0.1629781,-0.800074 0.1679168,-0.31114 0.4593019,-0.454364 0.291385,-0.148161 0.6667285,-0.148161 0.2518752,0 0.4494244,0.04939 0.1975492,0.04939 0.3358336,0.118529 l -0.182733,0.488935 q -0.1531006,-0.05927 -0.3062012,-0.09878 -0.1531006,-0.04445 -0.2963238,-0.04445 -0.6519123,0 -0.6519123,0.884033 0,0.42967 0.162978,0.646974 0.1679169,0.217304 0.4790568,0.217304 0.2222429,0 0.3950984,-0.05433 0.1728556,-0.05433 0.3308949,-0.148162 v 0.538321 q -0.1531006,0.0889 -0.3308949,0.133346 -0.1728555,0.04445 -0.4346082,0.04445 z"
       style="font-style:normal;font-variant:normal;font-weight:600;font-stretch:normal;font-size:4.93873px;font-family:'Noto Sans';-inkscape-font-specification:'Noto Sans Semi-Bold'"
       id="path862" />
    <path
       d="m -2.6003817,44.357293 q 0.5185666,0 0.785258,0.227181 0.2716302,0.227182 0.2716302,0.7013 v 1.797697 h -0.439547 l -0.1234682,-0.370404 h -0.019755 q -0.1728555,0.217304 -0.365466,0.321017 -0.1926104,0.09878 -0.5235053,0.09878 -0.3605273,0 -0.5975863,-0.202488 -0.237059,-0.202488 -0.237059,-0.627219 0,-0.414853 0.3012625,-0.62228 0.3062012,-0.207427 0.9235424,-0.23212 l 0.4642406,-0.01482 V 45.30059 q 0,-0.251875 -0.1234682,-0.360527 -0.1234682,-0.113591 -0.3457111,-0.113591 -0.2024879,0 -0.3901596,0.05926 -0.182733,0.05926 -0.365466,0.138284 l -0.1975492,-0.434608 q 0.1975492,-0.103713 0.4494244,-0.167917 0.2568139,-0.0642 0.5333828,-0.0642 z m 0.1135908,1.471741 q -0.4099146,0.01482 -0.5679539,0.143223 -0.1580394,0.123468 -0.1580394,0.335834 0,0.19261 0.1086521,0.276569 0.1135907,0.07902 0.2963237,0.07902 0.2716302,0 0.4593019,-0.1531 0.1876717,-0.15804 0.1876717,-0.464241 v -0.227181 z"
       style="font-style:normal;font-variant:normal;font-weight:600;font-stretch:normal;font-size:4.93873px;font-family:'Noto Sans';-inkscape-font-specification:'Noto Sans Semi-Bold'"
       id="path864" />
    <path
       d="m 1.0592128,46.308091 q 0,0.404976 -0.2913851,0.617341 -0.28644633,0.207427 -0.82476787,0.207427 -0.2815076,0 -0.48399552,-0.03951 -0.19754919,-0.03951 -0.38522092,-0.123468 v -0.528444 q 0.19754919,0.09383 0.43460822,0.158039 0.24199776,0.0642 0.45436314,0.0642 0.25681395,0 0.37040473,-0.07902 0.11359079,-0.07902 0.11359079,-0.212366 0,-0.07902 -0.0444486,-0.138284 -0.0444486,-0.0642 -0.17779427,-0.138285 -0.12840698,-0.07408 -0.38522093,-0.182733 -0.25681394,-0.09877 -0.42966948,-0.202487 -0.16791682,-0.108653 -0.25681395,-0.251876 -0.0839584,-0.143223 -0.0839584,-0.370404 0,-0.360528 0.2815076,-0.543261 0.28644632,-0.187671 0.76056438,-0.187671 0.24693649,0 0.4642406,0.04939 0.22224284,0.04939 0.44448568,0.148162 l -0.19754919,0.459302 q -0.18767173,-0.07902 -0.365466,-0.133346 -0.17779428,-0.05433 -0.36546601,-0.05433 -0.40991457,0 -0.40991457,0.23212 0,0.08396 0.0493873,0.143223 0.054326,0.05926 0.182733,0.128407 0.1333457,0.0642 0.37534346,0.15804 0.23705903,0.09384 0.40991457,0.197549 0.17285555,0.09877 0.26669141,0.246936 0.0938359,0.148162 0.0938359,0.375344 z"
       style="font-style:normal;font-variant:normal;font-weight:600;font-stretch:normal;font-size:4.93873px;font-family:'Noto Sans';-inkscape-font-specification:'Noto Sans Semi-Bold'"
       id="path866" />
    <path
       d="m 2.2790786,44.223947 q 0,0.158039 -0.014816,0.31114 -0.00988,0.148162 -0.019755,0.222243 h 0.03951 q 0.128407,-0.202488 0.3358337,-0.301263 0.2074266,-0.09877 0.4593018,-0.09877 0.4543632,0 0.7111771,0.23212 0.256814,0.23212 0.256814,0.750687 v 1.743371 h -0.62228 v -1.619903 q 0,-0.602525 -0.493873,-0.602525 -0.3753434,0 -0.5136279,0.237059 -0.1382844,0.237059 -0.1382844,0.676606 v 1.308763 H 1.6567987 v -3.753434 h 0.6222799 z"
       style="font-style:normal;font-variant:normal;font-weight:600;font-stretch:normal;font-size:4.93873px;font-family:'Noto Sans';-inkscape-font-specification:'Noto Sans Semi-Bold'"
       id="path868" />
    <path
       d="m 4.7385577,44.732636 q 0,-0.212365 0.1086521,-0.296324 0.108652,-0.0889 0.2666914,-0.0889 0.1531006,0 0.2666914,0.0889 0.1135908,0.08396 0.1135908,0.296324 0,0.202488 -0.1135908,0.291385 -0.1135908,0.0889 -0.2666914,0.0889 -0.1580394,0 -0.2666914,-0.0889 -0.1086521,-0.0889 -0.1086521,-0.291385 z m 0,2.034757 q 0,-0.207427 0.1086521,-0.291385 0.108652,-0.0889 0.2666914,-0.0889 0.1531006,0 0.2666914,0.0889 0.1135908,0.08396 0.1135908,0.291385 0,0.202488 -0.1135908,0.291385 -0.1135908,0.0889 -0.2666914,0.0889 -0.1580394,0 -0.2666914,-0.0889 -0.1086521,-0.0889 -0.1086521,-0.291385 z"
       style="font-style:normal;font-variant:normal;font-weight:600;font-stretch:normal;font-size:4.93873px;font-family:'Noto Sans';-inkscape-font-specification:'Noto Sans Semi-Bold'"
       id="path870" />
    <path
       d="m 7.6128958,44.357293 q 0.4691794,0 0.7556257,0.350649 0.2864463,0.345711 0.2864463,1.032195 0,0.686483 -0.2963238,1.042072 -0.291385,0.35065 -0.7605644,0.35065 -0.2963237,0 -0.4790567,-0.108652 -0.182733,-0.108652 -0.2913851,-0.251876 h -0.03951 q 0.014816,0.09384 0.024694,0.207427 0.014816,0.108652 0.014816,0.202488 v 1.086521 H 6.2053579 V 44.40668 h 0.5037504 l 0.088897,0.355588 h 0.029632 q 0.1086521,-0.167916 0.2963238,-0.286446 0.1876717,-0.118529 0.4889347,-0.118529 z m -0.1777942,0.50375 q -0.3308949,0 -0.4691794,0.197549 -0.1333457,0.197549 -0.1382844,0.597586 v 0.07902 q 0,0.42967 0.128407,0.66179 0.1333457,0.227182 0.4889342,0.227182 0.2913851,0 0.4296695,-0.237059 0.1432232,-0.241998 0.1432232,-0.656852 0,-0.414853 -0.1432232,-0.642034 -0.1382844,-0.227182 -0.4395469,-0.227182 z"
       style="font-style:normal;font-variant:normal;font-weight:600;font-stretch:normal;font-size:4.93873px;font-family:'Noto Sans';-inkscape-font-specification:'Noto Sans Semi-Bold'"
       id="path872" />
    <path
       d="m 10.492163,46.767393 q 0,-0.207427 0.108652,-0.291385 0.108652,-0.0889 0.266691,-0.0889 0.153101,0 0.266691,0.0889 0.113591,0.08396 0.113591,0.291385 0,0.202488 -0.113591,0.291385 -0.11359,0.0889 -0.266691,0.0889 -0.158039,0 -0.266691,-0.0889 -0.108652,-0.0889 -0.108652,-0.291385 z"
       style="font-style:normal;font-variant:normal;font-weight:600;font-stretch:normal;font-size:4.93873px;font-family:'Noto Sans';-inkscape-font-specification:'Noto Sans Semi-Bold'"
       id="path874" />
    <path
       d="m 11.870066,46.767393 q 0,-0.207427 0.108652,-0.291385 0.108652,-0.0889 0.266691,-0.0889 0.153101,0 0.266691,0.0889 0.113591,0.08396 0.113591,0.291385 0,0.202488 -0.113591,0.291385 -0.11359,0.0889 -0.266691,0.0889 -0.158039,0 -0.266691,-0.0889 -0.108652,-0.0889 -0.108652,-0.291385 z"
       style="font-style:normal;font-variant:normal;font-weight:600;font-stretch:normal;font-size:4.93873px;font-family:'Noto Sans';-inkscape-font-specification:'Noto Sans Semi-Bold'"
       id="path876" />
    <path
       d="m 13.247969,46.767393 q 0,-0.207427 0.108652,-0.291385 0.108652,-0.0889 0.266691,-0.0889 0.153101,0 0.266691,0.0889 0.113591,0.08396 0.113591,0.291385 0,0.202488 -0.113591,0.291385 -0.11359,0.0889 -0.266691,0.0889 -0.158039,0 -0.266691,-0.0889 -0.108652,-0.0889 -0.108652,-0.291385 z"
       style="font-style:normal;font-variant:normal;font-weight:600;font-stretch:normal;font-size:4.93873px;font-family:'Noto Sans';-inkscape-font-specification:'Noto Sans Semi-Bold'"
       id="path878" />
  </g>
  <text
     xml:space="preserve"
     style="font-size:2.1166px;line-height:1.25;font-family:'Annie Use Your Telescope';-inkscape-font-specification:'Annie Use Your Telescope';stroke-width:0.264575"
     x="-11.643627"
     y="44.782093"
     id="text867"><tspan
       sodipodi:role="line"
       id="tspan865"
       x="-11.643627"
       y="44.782093"
       style="stroke-width:0.264575" /></text>
  <path
     d="m 39.552797,42.404079 h 2.424567 v -0.839734 q 0,-0.51387 -0.353543,-0.868661 -0.353546,-0.354801 -0.858604,-0.354801 -0.505069,0 -0.858739,0.355707 -0.353681,0.355716 -0.353681,0.871381 z m 1.788061,4.631706 h -2.760431 q -0.217857,0 -0.376019,-0.158153 -0.158151,-0.158152 -0.158151,-0.374391 v -3.566619 q 0,-0.21623 0.158151,-0.374391 0.158162,-0.158152 0.376019,-0.158152 h 0.678114 v -0.840592 q 0,-0.641194 0.43625,-1.079033 0.43626,-0.43784 1.070211,-0.43784 0.633965,0 1.070293,0.438248 0.436326,0.438249 0.436326,1.082543 v 0.836674 h 0.678114 q 0.217857,0 0.376019,0.158152 0.158152,0.158161 0.158152,0.376018 v 0.621137 q -0.04573,-0.0019 -0.126078,-0.01349 -0.08033,-0.01164 -0.168189,-0.01164 v -0.596021 q 0,-0.104955 -0.06747,-0.17243 -0.06747,-0.06747 -0.17243,-0.06747 h -4.36931 q -0.104956,0 -0.17243,0.06747 -0.06747,0.06747 -0.06747,0.17243 v 3.563374 q 0,0.104956 0.06747,0.172431 0.06747,0.06747 0.17243,0.06747 h 2.566286 q 0.01774,0.07485 0.06508,0.152693 0.04734,0.07785 0.129069,0.141564 z m 1.75814,0.209172 q -0.631701,0 -1.076275,-0.444504 -0.444583,-0.444497 -0.444583,-1.072455 0,-0.627959 0.444506,-1.076286 0.444495,-0.448324 1.076206,-0.448324 0.631712,0 1.076285,0.447965 0.444574,0.447974 0.444574,1.072746 0,0.631702 -0.444497,1.076285 -0.444504,0.444573 -1.076216,0.444573 z m 0.675043,-0.636126 0.209545,-0.202048 -0.750089,-0.712449 v -1.11984 h -0.31075 v 1.219681 z m -5.433517,-1.661378 v 1.794074 -4.04318 z"
     id="path906"
     style="stroke-width:0.00974619" />
  <path
     d="m 21.886172,51.081043 q -0.529098,0 -0.899982,-0.370905 -0.370906,-0.370885 -0.370906,-0.899982 V 39.078273 q 0,-0.529074 0.370906,-0.899982 0.370884,-0.370882 0.899982,-0.370882 h 7.978311 q 0.529075,0 0.899982,0.370882 0.370883,0.370908 0.370883,0.899982 v 10.731883 q 0,0.529097 -0.370883,0.899982 -0.370907,0.370905 -0.899982,0.370905 z m 0,-0.706038 h 7.978311 q 0.211795,0 0.388322,-0.176527 0.176505,-0.176505 0.176505,-0.388322 V 39.078273 q 0,-0.211794 -0.176505,-0.388321 -0.176527,-0.176505 -0.388322,-0.176505 h -7.978311 q -0.211818,0 -0.388322,0.176505 -0.176505,0.176527 -0.176505,0.388321 v 10.731883 q 0,0.211817 0.176505,0.388322 0.176504,0.176527 0.388322,0.176527 z m -2.329957,3.035972 q -0.529074,0 -0.899982,-0.370882 -0.370882,-0.370884 -0.370882,-0.899982 V 40.702192 h 0.706037 v 11.437921 q 0,0.211819 0.176505,0.388322 0.176527,0.176504 0.388322,0.176504 h 8.684374 v 0.706038 z m 1.76513,-3.035972 V 38.513447 Z"
     id="path897"
     style="stroke-width:0.0229464" />
  <path
     d="m 58.921755,71.216103 q -0.995342,0 -1.897301,-0.412501 -0.901938,-0.41253 -1.480489,-1.20709 l -5.605349,-7.636183 0.348523,-0.396107 q 0.209502,-0.246106 0.514737,-0.305885 0.305213,-0.05975 0.599032,0.08087 l 3.910745,1.919596 v -9.808924 q 0,-0.199236 0.13273,-0.334008 0.132731,-0.134767 0.32914,-0.134767 0.196297,0 0.322715,0.134767 0.126464,0.134766 0.126464,0.334008 v 11.262116 l -4.878758,-2.393066 5.006295,6.759597 q 0.45775,0.628165 1.141433,0.914095 0.683683,0.285959 1.430061,0.285959 h 4.885584 q 1.30738,0 2.213883,-0.921134 0.906526,-0.921131 0.906526,-2.266463 v -4.453279 q 0,-0.856687 -0.563128,-1.436193 -0.563175,-0.579506 -1.395658,-0.579506 h -5.466419 v -0.937553 h 5.464001 q 1.196787,0 2.03453,0.861381 0.837744,0.861349 0.837744,2.091871 v 4.451602 q 0,1.733761 -1.177694,2.930279 -1.177693,1.196519 -2.853785,1.196519 z M 52.02955,55.664785 Q 51.747192,55.18711 51.593399,54.616716 51.43963,54.046323 51.43963,53.442382 q 0,-1.851163 1.267359,-3.148473 1.267336,-1.297312 3.0602,-1.297312 1.792885,0 3.060223,1.304563 1.267358,1.304534 1.267358,3.154111 0,0.601657 -0.153769,1.167814 -0.15377,0.566129 -0.436129,1.0417 l -0.788077,-0.468777 q 0.230028,-0.389068 0.348478,-0.830423 0.118405,-0.441355 0.118405,-0.930272 0,-1.45542 -0.99787,-2.47829 -0.997871,-1.022901 -2.423432,-1.022901 -1.42556,0 -2.418619,1.025491 -0.993057,1.025459 -0.993057,2.490415 0,0.480327 0.118405,0.918635 0.118404,0.438277 0.348477,0.827345 z m 7.117711,9.316743 z"
     id="path1566"
     style="stroke-width:0.0300365" />
</svg>
